<svg xmlns="http://www.w3.org/2000/svg" width="512" height="512" viewBox="0 0 512 512">
  <defs>
    <linearGradient id="bg" x1="0%" y1="0%" x2="100%" y2="100%">
      <stop offset="0%" style="stop-color:#7C3AED"/>
      <stop offset="50%" style="stop-color:#6D28D9"/>
      <stop offset="100%" style="stop-color:#4F46E5"/>
    </linearGradient>
    <linearGradient id="star" x1="0%" y1="0%" x2="100%" y2="100%">
      <stop offset="0%" style="stop-color:#FFFFFF"/>
      <stop offset="100%" style="stop-color:#E8D5B7"/>
    </linearGradient>
    <radialGradient id="glow" cx="50%" cy="50%" r="50%">
      <stop offset="0%" style="stop-color:#C4B5FD;stop-opacity:0.4"/>
      <stop offset="100%" style="stop-color:#7C3AED;stop-opacity:0"/>
    </radialGradient>
  </defs>
  <rect width="512" height="512" rx="102.4" fill="url(#bg)"/>
  <circle cx="256" cy="256" r="194.56" fill="none" stroke="rgba(255,255,255,0.15)" stroke-width="5.12"/>
  <circle cx="256" cy="256" r="136.19199999999998" fill="url(#glow)"/>
  <polygon points="256,112.63999999999999 289.7059575074596,209.607729474563 392.3434621760732,211.69932368640752 310.53738487042926,273.720270525437 340.26489376864896,371.9806763135925 256,313.344 171.73510623135104,371.9806763135925 201.4626151295707,273.720270525437 119.65653782392675,211.69932368640755 222.2940424925404,209.60772947456303" fill="url(#star)" opacity="0.95"/>
  <circle cx="256" cy="256" r="21.504" fill="#F59E0B" opacity="0.9"/>
  <circle cx="256" cy="90.624" r="6.144" fill="rgba(255,255,255,0.5)"/><circle cx="372.9384910455065" cy="139.06150895449352" r="6.144" fill="rgba(255,255,255,0.5)"/><circle cx="421.376" cy="256" r="6.144" fill="rgba(255,255,255,0.5)"/><circle cx="372.9384910455065" cy="372.93849104550645" r="6.144" fill="rgba(255,255,255,0.5)"/><circle cx="256" cy="421.376" r="6.144" fill="rgba(255,255,255,0.5)"/><circle cx="139.06150895449352" cy="372.9384910455065" r="6.144" fill="rgba(255,255,255,0.5)"/><circle cx="90.624" cy="256" r="6.144" fill="rgba(255,255,255,0.5)"/><circle cx="139.0615089544935" cy="139.06150895449352" r="6.144" fill="rgba(255,255,255,0.5)"/>
</svg>