<svg xmlns="http://www.w3.org/2000/svg" viewBox="0 0 48 48" width="48" height="48">
  <defs>
    <radialGradient id="sunGrad" cx="50%" cy="45%">
      <stop offset="0%" stop-color="#FFD700"/>
      <stop offset="40%" stop-color="#DAA520"/>
      <stop offset="100%" stop-color="#B8860B"/>
    </radialGradient>
    <radialGradient id="faceGrad" cx="45%" cy="40%">
      <stop offset="0%" stop-color="#CD9B1D"/>
      <stop offset="100%" stop-color="#8B6914"/>
    </radialGradient>
    <linearGradient id="ringGrad" x1="0" y1="0" x2="1" y2="1">
      <stop offset="0%" stop-color="#DAA520"/>
      <stop offset="50%" stop-color="#FFD700"/>
      <stop offset="100%" stop-color="#B8860B"/>
    </linearGradient>
  </defs>
  <circle cx="24" cy="24" r="23" fill="none" stroke="url(#ringGrad)" stroke-width="1.5"/>
  <circle cx="24" cy="24" r="21.5" fill="none" stroke="#DAA520" stroke-width="0.5" opacity="0.5"/>
  <circle cx="24" cy="24" r="21" fill="#FFF8E7"/>
  <circle cx="24" cy="24" r="14" fill="url(#sunGrad)"/>
  <line x1="38" y1="24" x2="45" y2="24" stroke="#DAA520" stroke-width="0.4" opacity="0.6"/>
  <line x1="36.1" y1="17" x2="42.2" y2="13.5" stroke="#DAA520" stroke-width="0.4" opacity="0.6"/>
  <line x1="31" y1="11.9" x2="34.5" y2="5.8" stroke="#DAA520" stroke-width="0.4" opacity="0.6"/>
  <line x1="24" y1="10" x2="24" y2="3" stroke="#DAA520" stroke-width="0.4" opacity="0.6"/>
  <line x1="17" y1="11.9" x2="13.5" y2="5.8" stroke="#DAA520" stroke-width="0.4" opacity="0.6"/>
  <line x1="11.9" y1="17" x2="5.8" y2="13.5" stroke="#DAA520" stroke-width="0.4" opacity="0.6"/>
  <line x1="10" y1="24" x2="3" y2="24" stroke="#DAA520" stroke-width="0.4" opacity="0.6"/>
  <line x1="11.9" y1="31" x2="5.8" y2="34.5" stroke="#DAA520" stroke-width="0.4" opacity="0.6"/>
  <line x1="17" y1="36.1" x2="13.5" y2="42.2" stroke="#DAA520" stroke-width="0.4" opacity="0.6"/>
  <line x1="24" y1="38" x2="24" y2="45" stroke="#DAA520" stroke-width="0.4" opacity="0.6"/>
  <line x1="31" y1="36.1" x2="34.5" y2="42.2" stroke="#DAA520" stroke-width="0.4" opacity="0.6"/>
  <line x1="36.1" y1="31" x2="42.2" y2="34.5" stroke="#DAA520" stroke-width="0.4" opacity="0.6"/>
  <text x="41.5" y="20.5" text-anchor="middle" font-size="4" fill="#B8860B" font-weight="bold">♈</text>
  <text x="38" y="12" text-anchor="middle" font-size="4" fill="#B8860B" font-weight="bold">♉</text>
  <text x="30.5" y="7" text-anchor="middle" font-size="4" fill="#B8860B" font-weight="bold">♊</text>
  <text x="21" y="6.5" text-anchor="middle" font-size="4" fill="#B8860B" font-weight="bold">♋</text>
  <text x="12.5" y="11" text-anchor="middle" font-size="4" fill="#B8860B" font-weight="bold">♌</text>
  <text x="7.5" y="19.5" text-anchor="middle" font-size="4" fill="#B8860B" font-weight="bold">♍</text>
  <text x="6.5" y="29.5" text-anchor="middle" font-size="4" fill="#B8860B" font-weight="bold">♎</text>
  <text x="10.5" y="37.5" text-anchor="middle" font-size="4" fill="#B8860B" font-weight="bold">♏</text>
  <text x="17.5" y="42.5" text-anchor="middle" font-size="4" fill="#B8860B" font-weight="bold">♐</text>
  <text x="27" y="43" text-anchor="middle" font-size="4" fill="#B8860B" font-weight="bold">♑</text>
  <text x="35.5" y="38.5" text-anchor="middle" font-size="4" fill="#B8860B" font-weight="bold">♒</text>
  <text x="41" y="30" text-anchor="middle" font-size="4" fill="#B8860B" font-weight="bold">♓</text>
  <circle cx="24" cy="24" r="10" fill="url(#faceGrad)" stroke="#B8860B" stroke-width="0.8"/>
  <line x1="34.5" y1="24" x2="37.5" y2="24" stroke="#FFD700" stroke-width="1.2" stroke-linecap="round"/>
  <line x1="33.1" y1="18.75" x2="35.7" y2="17.25" stroke="#FFD700" stroke-width="1.2" stroke-linecap="round"/>
  <line x1="29.25" y1="14.9" x2="30.75" y2="12.3" stroke="#FFD700" stroke-width="1.2" stroke-linecap="round"/>
  <line x1="24" y1="13.5" x2="24" y2="10.5" stroke="#FFD700" stroke-width="1.2" stroke-linecap="round"/>
  <line x1="18.75" y1="14.9" x2="17.25" y2="12.3" stroke="#FFD700" stroke-width="1.2" stroke-linecap="round"/>
  <line x1="14.9" y1="18.75" x2="12.3" y2="17.25" stroke="#FFD700" stroke-width="1.2" stroke-linecap="round"/>
  <line x1="13.5" y1="24" x2="10.5" y2="24" stroke="#FFD700" stroke-width="1.2" stroke-linecap="round"/>
  <line x1="14.9" y1="29.25" x2="12.3" y2="30.75" stroke="#FFD700" stroke-width="1.2" stroke-linecap="round"/>
  <line x1="18.75" y1="33.1" x2="17.25" y2="35.7" stroke="#FFD700" stroke-width="1.2" stroke-linecap="round"/>
  <line x1="24" y1="34.5" x2="24" y2="37.5" stroke="#FFD700" stroke-width="1.2" stroke-linecap="round"/>
  <line x1="29.25" y1="33.1" x2="30.75" y2="35.7" stroke="#FFD700" stroke-width="1.2" stroke-linecap="round"/>
  <line x1="33.1" y1="29.25" x2="35.7" y2="30.75" stroke="#FFD700" stroke-width="1.2" stroke-linecap="round"/>
  <ellipse cx="21.5" cy="23" rx="1.2" ry="1" fill="#654321"/>
  <ellipse cx="26.5" cy="23" rx="1.2" ry="1" fill="#654321"/>
  <ellipse cx="21.8" cy="22.7" rx="0.4" ry="0.3" fill="#FFD700" opacity="0.5"/>
  <ellipse cx="26.8" cy="22.7" rx="0.4" ry="0.3" fill="#FFD700" opacity="0.5"/>
  <path d="M23.5 24.5c0.3 0.5 0.7 0.5 1 0" stroke="#8B6914" stroke-width="0.5" fill="none" stroke-linecap="round"/>
  <path d="M22 26.5c0.5 1 3.5 1 4 0" stroke="#8B6914" stroke-width="0.6" fill="none" stroke-linecap="round"/>
  <circle cx="24" cy="2.5" r="0.8" fill="#FFD700"/>
  <circle cx="45" cy="24" r="0.7" fill="#DAA520"/>
  <circle cx="24" cy="45.5" r="0.8" fill="#FFD700"/>
  <circle cx="3" cy="24" r="0.7" fill="#DAA520"/>
</svg>